<svg xmlns="http://www.w3.org/2000/svg" style="display: none;">
  <!-- Tri-Digit Forensic Icon Library (v1.46.01) -->
  
  <symbol id="icon-power" viewBox="0 0 24 24" fill="none" stroke="currentColor" stroke-width="2.5" stroke-linecap="round" stroke-linejoin="round">
    <path d="M18.36 6.64a9 9 0 1 1-12.73 0M12 2v10" />
  </symbol>

  <symbol id="icon-refresh" viewBox="0 0 24 24" fill="none" stroke="currentColor" stroke-width="2.5" stroke-linecap="round" stroke-linejoin="round">
    <path d="M23 4v6h-6M1 20v-6h6M3.51 9a9 9 0 0 1 14.85-3.36L23 10M1 14l4.64 4.36A9 9 0 0 0 20.49 15" />
  </symbol>

  <symbol id="icon-pulse" viewBox="0 0 24 24" fill="none" stroke="currentColor" stroke-width="2.5" stroke-linecap="round" stroke-linejoin="round">
    <polyline points="22 12 18 12 15 21 9 3 6 12 2 12" />
  </symbol>

  <symbol id="icon-shield" viewBox="0 0 24 24" fill="none" stroke="currentColor" stroke-width="2.5" stroke-linecap="round" stroke-linejoin="round">
    <path d="M12 22s8-4 8-10V5l-8-3-8 3v7c0 6 8 10 8 10z" />
    <circle cx="12" cy="8" r="3" />
  </symbol>

  <symbol id="icon-grid" viewBox="0 0 24 24" fill="none" stroke="currentColor" stroke-width="2.5" stroke-linecap="round" stroke-linejoin="round">
    <rect x="3" y="3" width="7" height="7" />
    <rect x="14" y="3" width="7" height="7" />
    <rect x="14" y="14" width="7" height="7" />
    <rect x="3" y="14" width="7" height="7" />
  </symbol>

  <symbol id="icon-db" viewBox="0 0 24 24" fill="none" stroke="currentColor" stroke-width="2.5" stroke-linecap="round" stroke-linejoin="round">
    <ellipse cx="12" cy="5" rx="9" ry="3" />
    <path d="M21 12c0 1.66-4 3-9 3s-9-1.34-9-3" />
    <path d="M3 5v14c0 1.66 4 3 9 3s9-1.34 9-3V5" />
  </symbol>

  <symbol id="icon-layout" viewBox="0 0 24 24" fill="none" stroke="currentColor" stroke-width="2.5" stroke-linecap="round" stroke-linejoin="round">
    <rect x="3" y="3" width="18" height="18" rx="2" ry="2" />
    <line x1="9" y1="3" x2="9" y2="21" />
  </symbol>

  <symbol id="icon-zen" viewBox="0 0 24 24" fill="none" stroke="currentColor" stroke-width="2.5" stroke-linecap="round" stroke-linejoin="round">
    <path d="M15 3h6v6M9 21H3v-6M21 3l-7 7M3 21l7-7" />
  </symbol>

  <symbol id="icon-trash" viewBox="0 0 24 24" fill="none" stroke="currentColor" stroke-width="2.5" stroke-linecap="round" stroke-linejoin="round">
    <path d="M3 6h18m-2 0v14c0 1-1 2-2 2H7c-1 0-2-1-2-2V6m3 0V4c0-1 1-2 2-2h4c1 0 2 1 2 2v2" />
  </symbol>

  <symbol id="icon-music" viewBox="0 0 24 24" fill="none" stroke="currentColor" stroke-width="2" stroke-linecap="round" stroke-linejoin="round">
    <path d="M9 18V5l12-2v13" />
    <circle cx="6" cy="18" r="3" />
    <circle cx="18" cy="16" r="3" />
  </symbol>

  <symbol id="icon-library" viewBox="0 0 24 24" fill="none" stroke="currentColor" stroke-width="2" stroke-linecap="round" stroke-linejoin="round">
    <rect x="3" y="3" width="18" height="18" rx="2" ry="2" />
    <line x1="3" y1="9" x2="21" y2="9" />
    <line x1="9" y1="21" x2="9" y2="9" />
  </symbol>

  <symbol id="icon-video" viewBox="0 0 24 24" fill="none" stroke="currentColor" stroke-width="2" stroke-linecap="round" stroke-linejoin="round">
    <polygon points="23 7 16 12 23 17 23 7" />
    <rect x="1" y="5" width="15" height="14" rx="2" ry="2" />
  </symbol>

  <symbol id="icon-edit" viewBox="0 0 24 24" fill="none" stroke="currentColor" stroke-width="2" stroke-linecap="round" stroke-linejoin="round">
    <path d="M11 4H4a2 2 0 0 0-2 2v14a2 2 0 0 0 2 2h14a2 2 0 0 0 2-2v-7" />
    <path d="M18.5 2.5a2.121 2.121 0 1 1 3 3L12 15l-4 1 1-4 9.5-9.5z" />
  </symbol>

  <symbol id="icon-report" viewBox="0 0 24 24" fill="none" stroke="currentColor" stroke-width="2" stroke-linecap="round" stroke-linejoin="round">
    <line x1="18" y1="20" x2="18" y2="10" />
    <line x1="12" y1="20" x2="12" y2="4" />
    <line x1="6" y1="20" x2="6" y2="14" />
  </symbol>

  <symbol id="icon-tools" viewBox="0 0 24 24" fill="none" stroke="currentColor" stroke-width="2" stroke-linecap="round" stroke-linejoin="round">
    <path d="M14.7 6.3a1 1 0 0 0 0 1.4l1.6 1.6a1 1 0 0 0 1.4 0l3.77-3.77a2 2 0 0 1-2.83 0L14.7 6.3z" />
    <path d="m3.13 15.65 1.45-6.6a2 2 0 0 1 2-1.55h1a2 2 0 0 1 2 2v1a2 2 0 0 1-2 2H6.42l-1.45 6.6a1 1 0 0 1-1.84-.55z" />
  </symbol>

  <symbol id="icon-logbuch" viewBox="0 0 24 24" fill="none" stroke="currentColor" stroke-width="2" stroke-linecap="round" stroke-linejoin="round">
    <path d="M4 19.5A2.5 2.5 0 0 1 6.5 17H20" />
    <path d="M6.5 2H20v20H6.5A2.5 2.5 0 0 1 4 19.5v-15A2.5 2.5 0 0 1 6.5 2z" />
  </symbol>

  <symbol id="icon-environment" viewBox="0 0 24 24" fill="none" stroke="currentColor" stroke-width="2" stroke-linecap="round" stroke-linejoin="round">
    <rect x="2" y="3" width="20" height="14" rx="2" ry="2" />
    <line x1="8" y1="21" x2="16" y2="21" />
    <line x1="12" y1="17" x2="12" y2="21" />
  </symbol>

  <symbol id="icon-debug" viewBox="0 0 24 24" fill="none" stroke="currentColor" stroke-width="2" stroke-linecap="round" stroke-linejoin="round">
    <path d="m20 8-2.81 2.81A5.937 5.937 0 0 0 16.06 9H13V4h-2v5H7.94a5.937 5.937 0 0 0-1.13 1.81L4 8l-1.41 1.41l2.58 2.58c-.11.33-.17.66-.17 1.01H3v2h2c0 .35.06.68.17 1.01l-2.58 2.58L4 20l2.81-2.81c.33.66.78 1.27 1.33 1.81L7.94 19H11v5h2v-5h3.06c.41 0 .8-.08 1.13-.19L20 21.59L21.41 20.18L18.83 17.59c.11-.33.17-.66.17-1.01h2v-2h-2c0-.35-.06-.68-.17-1.01l2.58-2.58L20 8zM15 16H9v-2h6v2z" />
  </symbol>

  <symbol id="icon-search" viewBox="0 0 24 24" fill="none" stroke="currentColor" stroke-width="2" stroke-linecap="round" stroke-linejoin="round">
    <path d="M14.73 13.31C15.52 12.24 16 10.93 16 9.5 16 5.91 13.09 3 9.5 3S3 5.91 3 9.5 5.91 16 9.5 16c1.17 0 2.27-.31 3.22-.85L18.29 20.73 19.71 19.31l-4.98-6zM9.5 14C7.01 14 5 11.99 5 9.5S7.01 5 9.5 5 14 7.01 14 9.5 11.99 14 9.5 14z" />
  </symbol>

  <symbol id="icon-audit" viewBox="0 0 24 24" fill="none" stroke="currentColor" stroke-width="2" stroke-linecap="round" stroke-linejoin="round">
    <path d="M12 2v20M2 12h20M7 7l10 10M17 7L7 10" />
  </symbol>

  <symbol id="icon-diagnostics" viewBox="0 0 24 24" fill="none" stroke="currentColor" stroke-width="2.5" stroke-linecap="round" stroke-linejoin="round">
    <polyline points="22 12 18 12 15 21 9 3 6 12 2 12" />
  </symbol>

</svg>
